<?xml version="1.0" encoding="UTF-8"?>
<svg width="100px" height="100px" viewBox="0 0 100 100" version="1.1" xmlns="http://www.w3.org/2000/svg" xmlns:xlink="http://www.w3.org/1999/xlink">
    <!-- Generator: Sketch 48 (47235) - http://www.bohemiancoding.com/sketch -->
    <title>Page 1</title>
    <desc>Created with Sketch.</desc>
    <defs></defs>
    <g id="Page-1" stroke="none" stroke-width="1" fill="none" fill-rule="evenodd">
        <g>
            <polygon id="Fill-1" fill="#333333" points="0 0 0 100 50 50"></polygon>
            <polygon id="Fill-3" fill="#697277" points="100 0 0 0 50 50"></polygon>
            <polygon id="Fill-4" fill="#333333" points="0 100 100 100 50 50"></polygon>
            <polygon id="Fill-5" fill="#52595E" points="50 50 100 100 100 0"></polygon>
            <polygon id="Fill-6" fill="#52595E" points="6.32183908 6.32183908 6.32183908 93.9655172 50.2873563 50.1436782"></polygon>
            <polygon id="Fill-7" fill="#333333" points="93.9655172 6.32183908 6.32183908 6.32183908 50.1436782 50.2873563"></polygon>
            <polygon id="Fill-8" fill="#697277" points="6.32183908 93.9655172 93.9655172 93.9655172 50.1436782 50"></polygon>
            <polygon id="Fill-9" fill="#333333" points="50 50.1436782 93.9655172 93.9655172 93.9655172 6.32183908"></polygon>
            <path d="M87.6436782,84.9764891 C87.6436782,86.4483672 86.4499282,87.6436782 84.9796157,87.6436782 L15.3108657,87.6436782 C13.8405532,87.6436782 12.6436782,86.4483672 12.6436782,84.9764891 L12.6436782,15.3108657 C12.6436782,13.8374282 13.8405532,12.6436782 15.3108657,12.6436782 L84.9796157,12.6436782 C86.4499282,12.6436782 87.6436782,13.8374282 87.6436782,15.3108657 L87.6436782,84.9764891 Z" id="Fill-10" fill="#D0D0D0"></path>
            <path d="M87.6436782,84.9764891 C87.6436782,86.4483672 86.4499282,87.6436782 84.9796157,87.6436782 L15.3108657,87.6436782 C13.8405532,87.6436782 12.6436782,86.4483672 12.6436782,84.9764891 L12.6436782,15.3108657 C12.6436782,13.8374282 13.8405532,12.6436782 15.3108657,12.6436782 L84.9796157,12.6436782 C86.4499282,12.6436782 87.6436782,13.8374282 87.6436782,15.3108657 L87.6436782,84.9764891 Z" id="Fill-11" fill="#42ADE2"></path>
            <polygon id="Fill-12" fill="#FED0AC" points="12.9310345 55.7471264 87.6436782 55.7471264 87.6436782 87.6436782 12.9310345 87.6436782"></polygon>
            <path d="M81.0344828,28.8793103 C81.0344828,33.2436259 77.4964995,36.7816092 73.1321839,36.7816092 C68.7678684,36.7816092 65.2298851,33.2436259 65.2298851,28.8793103 C65.2298851,24.5149948 68.7678684,20.9770115 73.1321839,20.9770115 C77.4964995,20.9770115 81.0344828,24.5149948 81.0344828,28.8793103 Z" id="Fill-13" fill="#FFCE31"></path>
            <polygon id="Fill-14" fill="#89664C" points="27.8735632 62.5774156 50 68.9655172 50 42.816092"></polygon>
            <polygon id="Fill-15" fill="#D3976E" points="72.1264368 62.5774156 50 68.9655172 50 42.816092"></polygon>
            <path d="M9.1954023,9.1954023 L9.1954023,90.5172414 L90.5172414,90.5172414 L90.5172414,9.1954023 L9.1954023,9.1954023 M85.0436561,85.0436561 L14.6689876,85.0436561 L14.6689876,14.6689876 L85.0436561,14.6689876 L85.0436561,85.0436561" id="Fill-16" fill="#FFFFFF"></path>
        </g>
    </g>
</svg>